<svg width="41" height="40" viewBox="0 0 41 40" fill="none" xmlns="http://www.w3.org/2000/svg">
<path d="M13.4583 9.58333C12.775 9.58333 12.2083 9.01666 12.2083 8.33333V3.33333C12.2083 2.64999 12.775 2.08333 13.4583 2.08333C14.1417 2.08333 14.7083 2.64999 14.7083 3.33333V8.33333C14.7083 9.01666 14.1417 9.58333 13.4583 9.58333Z" fill="white"/>
<path d="M26.7917 9.58333C26.1083 9.58333 25.5417 9.01666 25.5417 8.33333V3.33333C25.5417 2.64999 26.1083 2.08333 26.7917 2.08333C27.475 2.08333 28.0417 2.64999 28.0417 3.33333V8.33333C28.0417 9.01666 27.475 9.58333 26.7917 9.58333Z" fill="white"/>
<path d="M14.2917 24.1667C14.075 24.1667 13.8583 24.1334 13.6583 24.0334C13.4583 23.95 13.275 23.8333 13.1083 23.6833C12.8083 23.3667 12.625 22.9333 12.625 22.5C12.625 22.2833 12.675 22.0667 12.7583 21.8667C12.8417 21.6667 12.9583 21.4834 13.1083 21.3167C13.275 21.1667 13.4583 21.05 13.6583 20.9667C14.2583 20.7167 15.0083 20.85 15.475 21.3167C15.625 21.4834 15.7417 21.6667 15.825 21.8667C15.9083 22.0667 15.9583 22.2833 15.9583 22.5C15.9583 22.9333 15.775 23.3667 15.475 23.6833C15.1583 23.9833 14.725 24.1667 14.2917 24.1667Z" fill="white"/>
<path d="M20.125 24.1667C19.6917 24.1667 19.2583 23.9833 18.9417 23.6833C18.7917 23.5166 18.675 23.3333 18.5917 23.1333C18.5083 22.9333 18.4583 22.7167 18.4583 22.5C18.4583 22.0667 18.6417 21.6333 18.9417 21.3167C19.4083 20.85 20.1417 20.7 20.7584 20.9666C20.9584 21.05 21.1417 21.1667 21.3084 21.3167C21.6084 21.6333 21.7917 22.0667 21.7917 22.5C21.7917 22.7167 21.7583 22.9333 21.6583 23.1333C21.575 23.3333 21.4584 23.5166 21.3084 23.6833C21.1417 23.8333 20.9584 23.95 20.7584 24.0333C20.5584 24.1333 20.3417 24.1667 20.125 24.1667Z" fill="white"/>
<path d="M14.2917 30C14.075 30 13.8583 29.95 13.6583 29.8667C13.4583 29.7834 13.275 29.6667 13.1083 29.5167C12.8083 29.2 12.625 28.7833 12.625 28.3333C12.625 28.1167 12.675 27.9 12.7583 27.7C12.8417 27.4833 12.9583 27.3167 13.1083 27.15C13.275 27 13.4583 26.8833 13.6583 26.8C14.2583 26.5333 15.0083 26.6833 15.475 27.15C15.625 27.3167 15.7417 27.4833 15.825 27.7C15.9083 27.9 15.9583 28.1167 15.9583 28.3333C15.9583 28.7833 15.775 29.2 15.475 29.5167C15.1583 29.8167 14.725 30 14.2917 30Z" fill="white"/>
<path d="M34.2917 16.3999H5.95834C5.27501 16.3999 4.70834 15.8333 4.70834 15.1499C4.70834 14.4666 5.27501 13.8999 5.95834 13.8999H34.2917C34.975 13.8999 35.5417 14.4666 35.5417 15.1499C35.5417 15.8333 34.975 16.3999 34.2917 16.3999Z" fill="white"/>
<path d="M30.125 39.5833C25.7583 39.5833 22.2083 36.0333 22.2083 31.6667C22.2083 27.3 25.7583 23.75 30.125 23.75C34.4917 23.75 38.0417 27.3 38.0417 31.6667C38.0417 36.0333 34.4917 39.5833 30.125 39.5833ZM30.125 26.25C27.1417 26.25 24.7083 28.6833 24.7083 31.6667C24.7083 34.65 27.1417 37.0833 30.125 37.0833C33.1083 37.0833 35.5417 34.65 35.5417 31.6667C35.5417 28.6833 33.1083 26.25 30.125 26.25Z" fill="white"/>
<path d="M32.6083 32.9999H27.625C26.9417 32.9999 26.375 32.4332 26.375 31.7499C26.375 31.0665 26.9417 30.4999 27.625 30.4999H32.6083C33.2917 30.4999 33.8583 31.0665 33.8583 31.7499C33.8583 32.4332 33.3083 32.9999 32.6083 32.9999Z" fill="white"/>
<path d="M30.125 35.5499C29.4417 35.5499 28.875 34.9833 28.875 34.2999V29.3166C28.875 28.6333 29.4417 28.0666 30.125 28.0666C30.8083 28.0666 31.375 28.6333 31.375 29.3166V34.2999C31.375 34.9833 30.8083 35.5499 30.125 35.5499Z" fill="white"/>
<path d="M25.7417 37.9167H13.4583C7.375 37.9167 3.875 34.4167 3.875 28.3333V14.1667C3.875 8.08333 7.375 4.58333 13.4583 4.58333H26.7917C32.875 4.58333 36.375 8.08333 36.375 14.1667V27.2666C36.375 27.7833 36.0583 28.25 35.5583 28.4333C35.075 28.6167 34.525 28.4833 34.175 28.0833C33.1417 26.9167 31.6583 26.25 30.1083 26.25C27.125 26.25 24.6917 28.6833 24.6917 31.6667C24.6917 32.65 24.9583 33.6167 25.475 34.45C25.7583 34.95 26.125 35.3667 26.525 35.7167C26.925 36.05 27.075 36.6 26.8917 37.1C26.7417 37.5833 26.275 37.9167 25.7417 37.9167ZM13.4583 7.08333C8.69167 7.08333 6.375 9.4 6.375 14.1667V28.3333C6.375 33.1 8.69167 35.4167 13.4583 35.4167H23.1583C22.5417 34.2833 22.2083 33 22.2083 31.6667C22.2083 27.3 25.7583 23.75 30.125 23.75C31.4417 23.75 32.7417 24.0833 33.875 24.7V14.1667C33.875 9.4 31.5583 7.08333 26.7917 7.08333H13.4583Z" fill="white"/>
</svg>
