<svg width="37" height="36" viewBox="0 0 37 36" fill="none" xmlns="http://www.w3.org/2000/svg">
<path d="M12.15 34.125H8.1C4.11 34.125 2.25 32.265 2.25 28.275V24.225C2.25 20.235 4.11 18.375 8.1 18.375H12.15C16.14 18.375 18 20.235 18 24.225V28.275C18 32.265 16.14 34.125 12.15 34.125ZM8.1 20.625C5.34 20.625 4.5 21.465 4.5 24.225V28.275C4.5 31.035 5.34 31.875 8.1 31.875H12.15C14.91 31.875 15.75 31.035 15.75 28.275V24.225C15.75 21.465 14.91 20.625 12.15 20.625H8.1V20.625Z" fill="white"/>
<path d="M22.875 34.125C22.47 34.125 22.095 33.9 21.9 33.555C21.705 33.21 21.705 32.775 21.915 32.43L23.49 29.805C23.805 29.265 24.495 29.1 25.035 29.415C25.575 29.73 25.74 30.42 25.425 30.96L25.02 31.635C29.16 30.66 32.265 26.94 32.265 22.5C32.265 21.885 32.775 21.375 33.39 21.375C34.005 21.375 34.515 21.885 34.515 22.5C34.5 28.905 29.28 34.125 22.875 34.125Z" fill="white"/>
<path d="M3.375 14.625C2.76 14.625 2.25 14.115 2.25 13.5C2.25 7.095 7.47 1.875 13.875 1.875C14.28 1.875 14.655 2.1 14.85 2.445C15.045 2.79 15.045 3.225 14.835 3.57L13.26 6.21C12.945 6.735 12.255 6.915 11.715 6.585C11.19 6.27 11.01 5.58 11.34 5.04L11.745 4.365C7.59 5.34 4.5 9.06 4.5 13.5C4.5 14.115 3.99 14.625 3.375 14.625Z" fill="white"/>
<path d="M26.625 17.625C22.29 17.625 18.75 14.085 18.75 9.75C18.75 5.415 22.29 1.875 26.625 1.875C30.96 1.875 34.5 5.415 34.5 9.75C34.5 14.085 30.96 17.625 26.625 17.625ZM26.625 4.125C23.52 4.125 21 6.645 21 9.75C21 12.855 23.52 15.375 26.625 15.375C29.73 15.375 32.25 12.855 32.25 9.75C32.25 6.645 29.73 4.125 26.625 4.125Z" fill="white"/>
</svg>
