<svg width="19" height="19" viewBox="0 0 19 19" fill="none" xmlns="http://www.w3.org/2000/svg">
<path fill-rule="evenodd" clip-rule="evenodd" d="M9.0994 8.83515C10.8264 8.83515 12.25 10.3206 12.25 11.7712C12.25 12.4327 11.9233 12.6997 11.5732 12.6997H7.58243C7.79247 13.3263 8.50428 13.7325 9.36779 13.7325C9.91623 13.7325 10.3597 13.57 10.6397 13.4076C10.7797 13.3263 10.9314 13.2683 11.1065 13.2683C11.5032 13.2683 11.8533 13.5816 11.8533 14.0226C11.8533 14.336 11.6783 14.5797 11.3398 14.7654C10.8031 15.0671 9.93957 15.1948 9.2861 15.1948C7.2907 15.1948 5.89042 13.895 5.89042 12.0382C5.89042 10.2742 7.2557 8.83515 9.0994 8.83515ZM9.07606 10.367C8.30591 10.367 7.68745 10.8893 7.54742 11.5043H10.593C10.453 10.8893 9.84622 10.367 9.07606 10.367Z" fill="#121B21"/>
<path fill-rule="evenodd" clip-rule="evenodd" d="M12.7825 0.658508C13.2644 0.658508 13.7266 0.849945 14.0674 1.1907L16.2604 3.38375C16.6012 3.72451 16.7926 4.18668 16.7926 4.66859V9.3606C16.8073 9.35972 16.8221 9.35928 16.837 9.35928H17.8757C18.281 9.35928 18.6095 9.68781 18.6095 10.0931C18.6095 10.4983 18.281 10.8269 17.8757 10.8269H16.837C16.8221 10.8269 16.8073 10.8264 16.7926 10.8256V12.2958C16.8073 12.2949 16.8221 12.2944 16.837 12.2944H17.8757C18.281 12.2944 18.6095 12.623 18.6095 13.0282C18.6095 13.4335 18.281 13.762 17.8757 13.762H16.837C16.8221 13.762 16.8073 13.7616 16.7926 13.7607V15.2311C16.8073 15.2303 16.8221 15.2298 16.837 15.2298H17.8757C18.281 15.2298 18.6095 15.5583 18.6095 15.9636C18.6095 16.3689 18.281 16.6974 17.8757 16.6974H16.837C16.8221 16.6974 16.8073 16.697 16.7926 16.6961V17.0118C16.7926 18.0153 15.9791 18.8288 14.9756 18.8288H4.07339C3.06987 18.8288 2.25636 18.0153 2.25636 17.0118V16.6974H1.39227C0.987004 16.6974 0.65847 16.3689 0.65847 15.9636C0.65847 15.5583 0.987005 15.2298 1.39227 15.2298H2.25636V13.762H1.39227C0.987004 13.762 0.65847 13.4335 0.65847 13.0282C0.65847 12.623 0.987005 12.2944 1.39227 12.2944H2.25636V10.8269H1.39227C0.987004 10.8269 0.65847 10.4983 0.65847 10.0931C0.65847 9.68781 0.987005 9.35928 1.39227 9.35928H2.25636V2.47554C2.25636 1.47202 3.06987 0.658508 4.07339 0.658508H12.7825ZM13.1585 17.0118C14.1621 17.0118 14.9756 16.1983 14.9756 15.1948V5.42184C14.9756 4.93993 14.7841 4.47776 14.4434 4.137L13.3141 3.00774C12.9734 2.66698 12.5112 2.47554 12.0293 2.47554H5.89042C4.8869 2.47554 4.07339 3.28905 4.07339 4.29257V15.1948C4.07339 16.1983 4.8869 17.0118 5.89042 17.0118H13.1585Z" fill="#121B21"/>
</svg>
