<svg width="32" height="31" viewBox="0 0 32 31" fill="none" xmlns="http://www.w3.org/2000/svg">
<g opacity="0.01">
<rect opacity="0.289481" x="0.896472" y="0.3875" width="30.225" height="30.225" rx="15.1125" stroke="#979797" stroke-width="0.775"/>
<rect opacity="0.390346" x="5.54647" y="0.3875" width="20.925" height="30.225" rx="1.1625" fill="#D8D8D8" stroke="#979797" stroke-width="0.775"/>
<rect opacity="0.296619" x="3.22148" y="2.71251" width="25.575" height="25.575" rx="1.1625" fill="#D8D8D8" stroke="#979797" stroke-width="0.775"/>
<rect opacity="0.265927" x="31.1215" y="5.03749" width="20.925" height="30.225" rx="1.1625" transform="rotate(90 31.1215 5.03749)" stroke="#979797" stroke-width="0.775"/>
</g>
<circle cx="22.984" cy="8.525" r="8.525" fill="#ED2324"/>
<path fill-rule="evenodd" clip-rule="evenodd" d="M9.1447 6.20001H12.7983C14.1435 6.20001 15.234 7.29052 15.234 8.63573V12.2893C15.234 13.6345 14.1435 14.725 12.7983 14.725H9.1447C7.79949 14.725 6.70898 13.6345 6.70898 12.2893V8.63573C6.70898 7.29052 7.79949 6.20001 9.1447 6.20001Z" stroke="#211E20" stroke-width="2.325"/>
<path fill-rule="evenodd" clip-rule="evenodd" d="M9.1447 17.825H12.7983C14.1435 17.825 15.234 18.9155 15.234 20.2607V23.9143C15.234 25.2595 14.1435 26.35 12.7983 26.35H9.1447C7.79949 26.35 6.70898 25.2595 6.70898 23.9143V20.2607C6.70898 18.9155 7.79949 17.825 9.1447 17.825Z" stroke="#211E20" stroke-width="2.325"/>
<path fill-rule="evenodd" clip-rule="evenodd" d="M20.9247 17.98H24.5783C25.9235 17.98 27.014 19.0705 27.014 20.4157V24.0693C27.014 25.4145 25.9235 26.505 24.5783 26.505H20.9247C19.5795 26.505 18.489 25.4145 18.489 24.0693V20.4157C18.489 19.0705 19.5795 17.98 20.9247 17.98Z" stroke="#211E20" stroke-width="2.325"/>
<path fill-rule="evenodd" clip-rule="evenodd" d="M25.063 6.20618C25.7511 6.20618 26.3958 6.4837 26.8828 6.99146C27.3698 7.49922 27.6359 8.17349 27.634 8.89093C27.634 9.60837 27.3658 10.2826 26.8788 10.7904L23.1683 14.6448C23.1171 14.6983 23.048 14.725 22.981 14.725C22.914 14.725 22.845 14.6962 22.7937 14.6428L19.0911 10.7822C18.6041 10.2744 18.334 9.6022 18.334 8.88476C18.332 8.16732 18.6002 7.49305 19.0871 6.98529C19.5721 6.47959 20.2188 6.20001 20.9049 6.20001C21.593 6.20001 22.2417 6.48164 22.7287 6.9894L22.9869 7.2587L23.2413 6.99351C23.7282 6.48575 24.3749 6.20618 25.063 6.20618ZM22.981 14.0569L26.5042 10.3978C26.8906 9.99483 27.1036 9.46035 27.1016 8.89092C27.1016 8.32149 26.8906 7.78701 26.5042 7.38409C26.1178 6.98323 25.6052 6.76121 25.061 6.76121C24.5169 6.76121 24.0023 6.98323 23.6158 7.38615L23.1742 7.84662C23.0697 7.95558 22.9021 7.95558 22.7976 7.84662L22.3521 7.38204C21.9656 6.97912 21.451 6.7571 20.9049 6.7571C20.3608 6.7571 19.8481 6.97912 19.4637 7.37998C19.0773 7.78084 18.8663 8.31532 18.8663 8.88475C18.8663 9.45418 19.0792 9.98867 19.4657 10.3916L22.981 14.0569Z" fill="black"/>
<path d="M26.8828 6.99146L27.554 6.34772V6.34772L26.8828 6.99146ZM27.634 8.89093L26.704 8.88837V8.89093H27.634ZM26.8788 10.7904L27.5488 11.4354L27.55 11.4341L26.8788 10.7904ZM23.1683 14.6448L22.4983 13.9999L22.4971 14.0011L23.1683 14.6448ZM22.7937 14.6428L22.1225 15.2865L22.1225 15.2865L22.7937 14.6428ZM19.0911 10.7822L19.7623 10.1384L19.0911 10.7822ZM18.334 8.88476H19.264L19.264 8.8822L18.334 8.88476ZM19.0871 6.98529L18.4159 6.34156L18.4159 6.34156L19.0871 6.98529ZM22.7287 6.9894L23.3999 6.34567V6.34567L22.7287 6.9894ZM22.9869 7.2587L22.3157 7.90243L22.9869 8.60227L23.6581 7.90243L22.9869 7.2587ZM23.2413 6.99351L23.9125 7.63725L23.9125 7.63725L23.2413 6.99351ZM26.5042 10.3978L27.1741 11.0428L27.1754 11.0415L26.5042 10.3978ZM22.981 14.0569L22.3098 14.7006L22.9797 15.3991L23.6509 14.702L22.981 14.0569ZM27.1016 8.89092H26.1716L26.1716 8.89414L27.1016 8.89092ZM26.5042 7.38409L27.1754 6.74036L27.1738 6.73865L26.5042 7.38409ZM23.6158 7.38615L22.9446 6.74241H22.9446L23.6158 7.38615ZM23.1742 7.84662L23.8454 8.49036L23.8454 8.49036L23.1742 7.84662ZM22.7976 7.84662L22.1264 8.49036L22.1264 8.49036L22.7976 7.84662ZM22.3521 7.38204L23.0233 6.7383L23.0233 6.7383L22.3521 7.38204ZM19.4637 7.37998L20.1332 8.02543L20.1349 8.02371L19.4637 7.37998ZM19.4657 10.3916L18.7945 11.0353H18.7945L19.4657 10.3916ZM27.554 6.34772C26.8954 5.66101 26.0099 5.27618 25.063 5.27618V7.13618C25.4923 7.13618 25.8962 7.30639 26.2116 7.63519L27.554 6.34772ZM28.5639 8.89348C28.5666 7.94122 28.2117 7.03356 27.554 6.34772L26.2116 7.63519C26.5278 7.96487 26.7053 8.40575 26.704 8.88837L28.5639 8.89348ZM27.55 11.4341C28.2066 10.7495 28.564 9.84313 28.564 8.89093H26.704C26.704 9.3736 26.525 9.81576 26.2076 10.1467L27.55 11.4341ZM23.8383 15.2898L27.5488 11.4354L26.2088 10.1454L22.4983 13.9999L23.8383 15.2898ZM22.981 15.655C23.2905 15.655 23.6055 15.5326 23.8395 15.2886L22.4971 14.0011C22.6287 13.864 22.8056 13.795 22.981 13.795V15.655ZM22.1225 15.2865C22.3439 15.5174 22.6531 15.655 22.981 15.655V13.795C23.1748 13.795 23.346 13.8751 23.4649 13.999L22.1225 15.2865ZM18.4199 11.4259L22.1225 15.2865L23.4649 13.9991L19.7623 10.1384L18.4199 11.4259ZM17.404 8.88476C17.404 9.83949 17.765 10.7431 18.4199 11.4259L19.7623 10.1384C19.4432 9.80574 19.264 9.36491 19.264 8.88476H17.404ZM18.4159 6.34156C17.7594 7.02613 17.4014 7.93327 17.404 8.88732L19.264 8.8822C19.2627 8.40137 19.4409 7.95997 19.7583 7.62902L18.4159 6.34156ZM20.9049 5.27001C19.9591 5.27001 19.0719 5.65759 18.4159 6.34156L19.7583 7.62902C20.0724 7.30159 20.4785 7.13001 20.9049 7.13001V5.27001ZM23.3999 6.34567C22.7428 5.66057 21.854 5.27001 20.9049 5.27001V7.13001C21.3321 7.13001 21.7406 7.30272 22.0575 7.63314L23.3999 6.34567ZM23.6581 6.61497L23.3999 6.34567L22.0575 7.63314L22.3157 7.90243L23.6581 6.61497ZM22.5701 6.34978L22.3157 6.61497L23.6581 7.90243L23.9125 7.63725L22.5701 6.34978ZM25.063 5.27618C24.1151 5.27618 23.2279 5.66387 22.5701 6.34978L23.9125 7.63725C24.2286 7.30764 24.6348 7.13618 25.063 7.13618V5.27618ZM25.8343 9.7527L22.3111 13.4119L23.6509 14.702L27.1741 11.0428L25.8343 9.7527ZM26.1716 8.89414C26.1728 9.22608 26.0502 9.52761 25.833 9.75402L27.1754 11.0415C27.7311 10.4621 28.0344 9.69463 28.0316 8.8877L26.1716 8.89414ZM25.833 8.02782C26.0486 8.25259 26.1716 8.55441 26.1716 8.89092H28.0316C28.0316 8.08857 27.7327 7.32143 27.1754 6.74036L25.833 8.02782ZM25.061 7.69121C25.3447 7.69121 25.6179 7.80473 25.8347 8.02954L27.1738 6.73865C26.6176 6.16173 25.8656 5.83121 25.061 5.83121V7.69121ZM24.287 8.02988C24.5026 7.80515 24.7767 7.69121 25.061 7.69121V5.83121C24.257 5.83121 23.502 6.16131 22.9446 6.74241L24.287 8.02988ZM23.8454 8.49036L24.287 8.02988L22.9446 6.74241L22.503 7.20289L23.8454 8.49036ZM22.1264 8.49036C22.597 8.981 23.3748 8.981 23.8454 8.49036L22.503 7.20289C22.7646 6.93015 23.2073 6.93015 23.4688 7.20289L22.1264 8.49036ZM21.6809 8.02577L22.1264 8.49036L23.4688 7.20289L23.0233 6.7383L21.6809 8.02577ZM20.9049 7.6871C21.1917 7.6871 21.4657 7.8014 21.6809 8.02577L23.0233 6.7383C22.4656 6.15683 21.7104 5.8271 20.9049 5.8271V7.6871ZM20.1349 8.02371C20.3486 7.80083 20.6209 7.6871 20.9049 7.6871V5.8271C20.1007 5.8271 19.3476 6.15741 18.7925 6.73625L20.1349 8.02371ZM19.7963 8.88475C19.7963 8.5478 19.9196 8.24709 20.1332 8.02543L18.7941 6.73453C18.235 7.31459 17.9363 8.08285 17.9363 8.88475H19.7963ZM20.1369 9.74785C19.9198 9.52149 19.7963 9.21901 19.7963 8.88475H17.9363C17.9363 9.68936 18.2387 10.4558 18.7945 11.0353L20.1369 9.74785ZM23.6522 13.4132L20.1369 9.74785L18.7945 11.0353L22.3098 14.7006L23.6522 13.4132Z" fill="#211E20"/>
</svg>
