<svg width="12" height="11" viewBox="0 0 12 11" fill="none" xmlns="http://www.w3.org/2000/svg">
<path fill-rule="evenodd" clip-rule="evenodd" d="M8.03504 10.3711C8.88186 10.3309 9.63229 10.1434 10.2519 9.54071C10.8715 8.93803 11.0643 8.20812 11.1056 7.38446C11.1366 6.85209 11.1405 6.32349 11.1405 5.79301L11.14 5.26169L11.1402 4.99556V4.99552C11.141 4.3758 11.1417 3.75992 11.1056 3.13892C11.0643 2.31526 10.8715 1.58535 10.2519 0.982667C9.63229 0.379988 8.88186 0.192488 8.03504 0.152309C7.39657 0.117157 6.76337 0.117885 6.12622 0.118617L5.85261 0.118827L5.579 0.118617C4.94184 0.117885 4.30864 0.117157 3.67017 0.152309C2.82336 0.192488 2.07293 0.379988 1.45331 0.982667C0.83369 1.58535 0.64092 2.31526 0.599612 3.13892C0.568631 3.67129 0.564758 4.19989 0.564758 4.73037L0.565189 5.26169L0.564973 5.52782C0.56422 6.14755 0.563472 6.76344 0.599612 7.38446C0.64092 8.20812 0.83369 8.93803 1.45331 9.54071C2.07293 10.1434 2.82336 10.3309 3.67017 10.3711C4.30864 10.4062 4.94184 10.4055 5.57899 10.4048L5.85261 10.4046L6.12623 10.4048C6.76338 10.4055 7.39658 10.4062 8.03504 10.3711ZM2.73386 9.27285C2.49289 9.1791 2.31389 9.06526 2.12801 8.88446C1.94212 8.70366 1.82508 8.52955 1.7287 8.29517C1.49187 7.71353 1.50453 6.4435 1.51272 5.62224V5.62223L1.51272 5.62222C1.51406 5.48851 1.51527 5.3667 1.51527 5.26169C1.51527 5.15668 1.51406 5.03487 1.51272 4.90116L1.51272 4.90115V4.90114C1.50453 4.07988 1.49187 2.80984 1.7287 2.2282C1.82508 1.99383 1.94212 1.81972 2.12801 1.63892C2.31389 1.45811 2.49289 1.34427 2.73386 1.25052C3.33184 1.02017 4.63758 1.03249 5.48193 1.04045C5.6194 1.04175 5.74464 1.04293 5.85261 1.04293C5.96057 1.04293 6.08582 1.04175 6.22329 1.04045C7.06764 1.03249 8.37337 1.02017 8.97136 1.25052C9.21232 1.34427 9.39132 1.45811 9.57721 1.63892C9.76309 1.81972 9.88013 1.99383 9.97652 2.2282C10.2133 2.80984 10.2007 4.07988 10.1925 4.90115C10.1917 4.97868 10.191 5.05222 10.1905 5.1208L10.1899 5.26169C10.1899 5.3666 10.1912 5.48829 10.1925 5.62185V5.62197V5.6221V5.62224V5.62225C10.2007 6.44352 10.2133 7.71354 9.97652 8.29517C9.88013 8.52955 9.76309 8.70366 9.57721 8.88446C9.39132 9.06526 9.21232 9.1791 8.97136 9.27285C8.37337 9.50321 7.06765 9.49089 6.2233 9.48292H6.22329C6.08581 9.48163 5.96057 9.48044 5.85261 9.48044C5.74464 9.48044 5.6194 9.48163 5.48193 9.48292H5.48192C4.63757 9.49089 3.33184 9.50321 2.73386 9.27285ZM9.30871 2.5161C9.30871 2.85762 9.02643 3.13217 8.67532 3.13217C8.3242 3.13217 8.04193 2.85762 8.04193 2.5161C8.04193 2.17458 8.3242 1.90003 8.67532 1.90003C9.02643 1.90003 9.30871 2.17458 9.30871 2.5161ZM5.8526 7.90004C7.35346 7.90004 8.56516 6.72147 8.56516 5.26165C8.56516 3.80182 7.35346 2.62325 5.8526 2.62325C4.35175 2.62325 3.14005 3.80182 3.14005 5.26165C3.14005 6.72147 4.35175 7.90004 5.8526 7.90004ZM4.09012 5.26167C4.09012 6.20586 4.88186 6.97596 5.85259 6.97596C6.82333 6.97596 7.61507 6.20586 7.61507 5.26167C7.61507 4.31747 6.82333 3.54738 5.85259 3.54738C4.88186 3.54738 4.09012 4.31747 4.09012 5.26167Z" fill="white"/>
</svg>
