<svg width="37" height="36" viewBox="0 0 37 36" fill="none" xmlns="http://www.w3.org/2000/svg">
<path d="M25.045 33.15H19.345C18.505 33.15 16.675 32.895 15.7 31.92L11.155 28.41L12.535 26.625L17.185 30.225C17.56 30.585 18.505 30.885 19.345 30.885H25.045C26.395 30.885 27.85 29.805 28.15 28.59L31.78 17.565C32.02 16.905 31.975 16.305 31.66 15.87C31.33 15.405 30.73 15.135 29.995 15.135H23.995C23.215 15.135 22.495 14.805 22 14.235C21.49 13.65 21.265 12.87 21.385 12.06L22.135 7.245C22.315 6.405 21.745 5.46 20.935 5.19C20.2 4.92 19.255 5.31 18.925 5.79L12.775 14.94L10.915 13.695L17.065 4.545C18.01 3.135 20.08 2.46 21.7 3.075C23.575 3.69 24.775 5.76 24.355 7.68L23.62 12.405C23.605 12.51 23.605 12.66 23.71 12.78C23.785 12.855 23.89 12.9 24.01 12.9H30.01C31.48 12.9 32.755 13.515 33.505 14.58C34.24 15.615 34.39 16.98 33.91 18.3L30.325 29.22C29.77 31.395 27.46 33.15 25.045 33.15Z" fill="white"/>
<path d="M8.69501 31.5H7.19501C4.42001 31.5 3.07001 30.195 3.07001 27.525V12.825C3.07001 10.155 4.42001 8.85001 7.19501 8.85001H8.69501C11.47 8.85001 12.82 10.155 12.82 12.825V27.525C12.82 30.195 11.47 31.5 8.69501 31.5ZM7.19501 11.1C5.56001 11.1 5.32001 11.49 5.32001 12.825V27.525C5.32001 28.86 5.56001 29.25 7.19501 29.25H8.69501C10.33 29.25 10.57 28.86 10.57 27.525V12.825C10.57 11.49 10.33 11.1 8.69501 11.1H7.19501Z" fill="white"/>
</svg>
