<svg width="14" height="13" viewBox="0 0 14 13" fill="none" xmlns="http://www.w3.org/2000/svg">
<path fill-rule="evenodd" clip-rule="evenodd" d="M2.47646 3.64766C3.4179 3.64766 4.00732 3.0425 3.99914 2.28605C3.99095 1.51367 3.4179 0.924438 2.49283 0.924438C1.57595 0.924438 0.970154 1.51367 0.970154 2.28605C0.970154 3.0425 1.55139 3.64766 2.46009 3.64766H2.47646ZM8.01049 12.6136V8.21026C8.01049 7.97138 8.03505 7.74046 8.10054 7.56529C8.29701 7.09549 8.73908 6.60977 9.48405 6.60977C10.4582 6.60977 10.8512 7.33437 10.8512 8.3934V12.6136H13.5445V8.09082C13.5445 5.67018 12.2183 4.53949 10.4419 4.53949C9.04539 4.53949 8.40077 5.26346 8.03965 5.80035L8.01032 5.84376L8.01049 4.72263H5.31715L5.3176 4.73562L5.31779 4.74191L5.31825 4.75894C5.32085 4.85987 5.32731 5.20705 5.33023 6.22818L5.33076 6.44152L5.33099 6.55517L5.3315 6.92516L5.3316 7.05849L5.33165 7.64434L5.33156 7.80441L5.33103 8.3188C5.32954 9.4 5.32545 10.8008 5.31715 12.6136H8.01049ZM3.82722 4.72266V12.6136H1.12569V4.72266H3.82722Z" fill="white"/>
</svg>
