<svg width="64" height="36" viewBox="0 0 64 36" fill="none" xmlns="http://www.w3.org/2000/svg">
<path d="M63.2195 16.5577C63.2195 11.1895 58.9836 6.82224 53.7763 6.82224L44.2963 6.83276C43.6318 6.83276 42.9945 7.10193 42.5246 7.58105C42.0547 8.06018 41.7907 8.71001 41.7907 9.3876V11.1489C41.5402 10.8484 41.2763 10.5478 40.9963 10.2728C38.7855 8.05758 35.8009 6.78617 32.8207 6.78617C30.3875 6.78133 28.0077 7.51363 25.9833 8.89015C23.959 7.51363 21.5792 6.78133 19.146 6.78617C16.1643 6.78617 13.1856 8.05758 10.9704 10.2728C10.5803 10.6638 10.2169 11.0816 9.88265 11.5231V11.4811C9.80218 10.3036 9.31495 9.19338 8.50752 8.34763C9.15083 7.62782 9.57341 6.73173 9.72315 5.76992C9.87288 4.80811 9.7432 3.82264 9.35012 2.93508C8.95704 2.04753 8.31775 1.29672 7.51111 0.775275C6.70448 0.253829 5.76578 -0.0154405 4.81082 0.000684021C3.85587 0.0168086 2.92643 0.317622 2.13716 0.866015C1.3479 1.41441 0.733339 2.18639 0.369296 3.08673C0.00525183 3.98706 -0.0923494 4.97637 0.0885322 5.9326C0.269414 6.88883 0.720865 7.77016 1.38719 8.46785C0.627503 9.31979 0.172961 10.4088 0.0975472 11.5577V11.6434V34.7226C0.0975472 35.0614 0.229538 35.3863 0.464484 35.6259C0.699429 35.8654 1.01808 36 1.35035 36H53.797C58.9895 35.9865 63.2136 31.6207 63.2136 26.2676C63.2099 24.565 62.7759 22.8921 61.9534 21.4104C62.7777 19.9307 63.2137 18.2593 63.2195 16.5577V16.5577Z" fill="white"/>
<path d="M2.52649 5.30585C2.46267 4.80175 2.55538 4.28992 2.7916 3.84231C3.02781 3.39471 3.39565 3.03384 3.84341 2.81042C4.29117 2.587 4.79633 2.51227 5.2879 2.59674C5.77946 2.6812 6.23271 2.92062 6.58393 3.28132C6.93515 3.64203 7.16668 4.10589 7.24598 4.60771C7.32529 5.10953 7.24837 5.62407 7.02604 6.07901C6.80372 6.53395 6.44716 6.90641 6.0065 7.14405C5.56584 7.38168 5.06322 7.47253 4.5693 7.40383C4.04993 7.33185 3.56831 7.08729 3.19902 6.70802C2.82973 6.32876 2.59336 5.83593 2.52649 5.30585V5.30585Z" fill="#ED1C24"/>
<path d="M4.8965 9.36053C4.27983 9.36964 3.68965 9.6176 3.24569 10.0541C2.80173 10.4906 2.53723 11.0829 2.50586 11.711V33.4271H7.28419V11.6388C7.24177 11.0219 6.97205 10.4441 6.52917 10.0215C6.0863 9.59895 5.50304 9.36281 4.8965 9.36053V9.36053Z" fill="#121B21"/>
<path d="M32.7278 9.32447C30.5792 9.31608 28.4885 10.0349 26.7837 11.3683L25.892 12.0762L24.9988 11.3683C23.2932 10.0351 21.2022 9.31631 19.0531 9.32447C14.1657 9.32447 9.87527 13.6121 9.87527 18.5024V33.4271H14.6551V18.564C14.6551 16.1264 16.5888 14.2162 19.0576 14.2162C21.5263 14.2162 23.55 16.1699 23.55 18.564V30.9159C23.55 32.7388 25.0563 33.2197 25.8625 33.2197C26.4662 33.2158 27.045 32.9737 27.4775 32.5442C27.9099 32.1147 28.1626 31.5311 28.1824 30.9159V18.561C28.1824 16.1639 30.1986 14.2162 32.6748 14.2162C35.1273 14.2162 37.1229 16.1699 37.1229 18.564V33.4271H41.9013V18.5024C41.9013 13.6121 37.6137 9.32447 32.7278 9.32447Z" fill="#121B21"/>
<path d="M53.5951 23.6842C54.2522 23.6842 54.8824 23.9503 55.347 24.4241C55.8116 24.8979 56.0727 25.5404 56.0727 26.2104C56.0727 26.8805 55.8116 27.523 55.347 27.9968C54.8824 28.4706 54.2522 28.7367 53.5951 28.7367H44.2035V33.4241H53.7027C57.5156 33.4151 60.6181 30.196 60.6181 26.2465C60.6163 24.707 60.1376 23.2075 59.2503 21.9619L58.8406 21.3938L59.2474 20.8272C60.1366 19.5808 60.6164 18.0795 60.6181 16.5381C60.6181 12.5811 57.5082 9.36053 53.6909 9.36053L44.2094 9.36955V14.0194H53.5906C54.2367 14.0354 54.851 14.3084 55.3023 14.78C55.7537 15.2516 56.0064 15.8844 56.0064 16.5434C56.0064 17.2023 55.7537 17.8352 55.3023 18.3068C54.851 18.7784 54.2367 19.0513 53.5906 19.0674H48.5293H48.491C48.1846 19.0677 47.8815 19.1313 47.5999 19.2545C47.3183 19.3776 47.0641 19.5577 46.8528 19.7839C46.6414 20.0101 46.4773 20.2776 46.3702 20.5704C46.2632 20.8631 46.2155 21.1749 46.2301 21.487C46.2689 22.0866 46.5313 22.6482 46.9636 23.0566C47.3959 23.4649 47.9651 23.689 48.5544 23.6827L53.5951 23.6842Z" fill="#121B21"/>
</svg>
