<svg width="37" height="36" viewBox="0 0 37 36" fill="none" xmlns="http://www.w3.org/2000/svg">
<path d="M12.0415 8.625C11.4265 8.625 10.9165 8.115 10.9165 7.5V3C10.9165 2.385 11.4265 1.875 12.0415 1.875C12.6565 1.875 13.1665 2.385 13.1665 3V7.5C13.1665 8.115 12.6565 8.625 12.0415 8.625Z" fill="white"/>
<path d="M24.0415 8.625C23.4265 8.625 22.9165 8.115 22.9165 7.5V3C22.9165 2.385 23.4265 1.875 24.0415 1.875C24.6565 1.875 25.1665 2.385 25.1665 3V7.5C25.1665 8.115 24.6565 8.625 24.0415 8.625Z" fill="white"/>
<path d="M22.5415 20.625H10.5415C9.9265 20.625 9.4165 20.115 9.4165 19.5C9.4165 18.885 9.9265 18.375 10.5415 18.375H22.5415C23.1565 18.375 23.6665 18.885 23.6665 19.5C23.6665 20.115 23.1565 20.625 22.5415 20.625Z" fill="white"/>
<path d="M18.0415 26.625H10.5415C9.9265 26.625 9.4165 26.115 9.4165 25.5C9.4165 24.885 9.9265 24.375 10.5415 24.375H18.0415C18.6565 24.375 19.1665 24.885 19.1665 25.5C19.1665 26.115 18.6565 26.625 18.0415 26.625Z" fill="white"/>
<path d="M22.5415 34.125H13.5415C5.1115 34.125 3.4165 30.15 3.4165 23.73V14.475C3.4165 7.365 5.8165 4.47 11.9815 4.125H24.0415C24.0565 4.125 24.0865 4.125 24.1015 4.125C30.2665 4.47 32.6665 7.365 32.6665 14.475V23.73C32.6665 30.15 30.9715 34.125 22.5415 34.125ZM12.0415 6.375C7.8415 6.615 5.6665 7.935 5.6665 14.475V23.73C5.6665 29.475 6.7615 31.875 13.5415 31.875H22.5415C29.3215 31.875 30.4165 29.475 30.4165 23.73V14.475C30.4165 7.95 28.2565 6.615 24.0115 6.375H12.0415Z" fill="white"/>
</svg>
