<svg width="31" height="30" viewBox="0 0 31 30" fill="none" xmlns="http://www.w3.org/2000/svg">
<g opacity="0.01">
<rect opacity="0.289481" x="0.883972" y="0.375" width="29.25" height="29.25" rx="14.625" stroke="#979797" stroke-width="0.75"/>
<rect opacity="0.390346" x="5.38397" y="0.375" width="20.25" height="29.25" rx="1.125" fill="#D8D8D8" stroke="#979797" stroke-width="0.75"/>
<rect opacity="0.296619" x="3.13397" y="2.625" width="24.75" height="24.75" rx="1.125" fill="#D8D8D8" stroke="#979797" stroke-width="0.75"/>
<rect opacity="0.265927" x="30.134" y="4.875" width="20.25" height="29.25" rx="1.125" transform="rotate(90 30.134 4.875)" stroke="#979797" stroke-width="0.75"/>
</g>
<circle cx="21.509" cy="8.25" r="8.25" fill="#ED2324"/>
<path fill-rule="evenodd" clip-rule="evenodd" d="M7.25897 6H6.12899C3.86963 6.00707 2.03468 7.7947 2.00897 10.0138V25.9995C2.0347 28.2125 3.86566 29.9947 6.11891 30H18.8889C21.1563 29.9964 22.996 28.1968 23.009 25.9697V25.5H20.7984V26.034C20.791 27.0202 19.9722 27.8164 18.9635 27.8182H18.9567H18.9397H6.05442C5.04819 27.82 4.22885 27.0278 4.2195 26.0439V9.95938C4.22874 8.98143 5.03725 8.19085 6.0374 8.18182H7.25897V6Z" fill="#211E20"/>
<path fill-rule="evenodd" clip-rule="evenodd" d="M6.50897 22.2495V6.26375C6.53468 4.0447 8.36963 2.25707 10.629 2.25H19.0673C20.2632 2.25197 21.3999 2.76093 22.1859 3.64623L27.025 9.09913C27.3383 9.45082 27.5104 9.90262 27.509 10.3699V22.2197C27.496 24.4468 25.6563 26.2464 23.3889 26.25H10.6189C8.36566 26.2447 6.5347 24.4625 6.50897 22.2495ZM23.4397 24.0682H23.4635C24.4722 24.0664 25.291 23.2702 25.2984 22.284V10.4735L20.4814 5.05763C20.128 4.6591 19.6148 4.43066 19.0754 4.43182H10.5374C9.53725 4.44085 8.72874 5.23143 8.7195 6.20938V22.2939C8.72885 23.2778 9.54819 24.07 10.5544 24.0682H23.4567H23.4397Z" fill="#211E20"/>
<path fill-rule="evenodd" clip-rule="evenodd" d="M13.7285 16.0163V12.75H12.509V21.75H13.7285V18.1443H21.509V16.0163H13.7285ZM14.7042 19.0811H17.009V21.7465H14.7042V19.0811ZM21.509 19.0811H17.9846V21.7465H21.509V19.0811ZM14.7042 12.75H18.3487V15.0795H14.7042V12.75ZM21.509 12.75H19.3208V15.0795H21.509V12.75Z" fill="#211E20"/>
</svg>
