<svg width="31" height="30" viewBox="0 0 31 30" fill="none" xmlns="http://www.w3.org/2000/svg">
<g opacity="0.01">
<rect opacity="0.289481" x="0.883972" y="0.375" width="29.25" height="29.25" rx="14.625" stroke="#979797" stroke-width="0.75"/>
<rect opacity="0.390346" x="5.38397" y="0.375" width="20.25" height="29.25" rx="1.125" fill="#D8D8D8" stroke="#979797" stroke-width="0.75"/>
<rect opacity="0.296619" x="3.13397" y="2.625" width="24.75" height="24.75" rx="1.125" fill="#D8D8D8" stroke="#979797" stroke-width="0.75"/>
<rect opacity="0.265927" x="30.134" y="4.875" width="20.25" height="29.25" rx="1.125" transform="rotate(90 30.134 4.875)" stroke="#979797" stroke-width="0.75"/>
</g>
<circle cx="8.75897" cy="8.25" r="8.25" fill="#ED2324"/>
<path fill-rule="evenodd" clip-rule="evenodd" d="M30.509 15C30.509 6.71573 23.7932 0 15.509 0C7.2247 0 0.508972 6.71573 0.508972 15C0.508972 23.2843 7.2247 30 15.509 30C23.7932 30 30.509 23.2843 30.509 15ZM2.75897 15C2.75897 7.95837 8.46734 2.25 15.509 2.25C22.5506 2.25 28.259 7.95837 28.259 15C28.259 22.0416 22.5506 27.75 15.509 27.75C8.46734 27.75 2.75897 22.0416 2.75897 15Z" fill="#211E20"/>
<path fill-rule="evenodd" clip-rule="evenodd" d="M20.1453 16.75H21.0044C22.7226 17.17 23.009 19.13 23.009 20.11V23.61C23.1097 26.8484 21.1322 28.4346 18.5471 28.9193C20.2987 28.293 21.5772 26.7162 21.5772 23.75V20.11C21.5772 19.69 21.434 18.29 20.5749 18.01H20.2885C20.1453 18.15 20.0022 18.29 20.0022 18.43C20.0022 18.85 19.7158 18.99 19.2862 18.99C18.9999 18.99 18.7135 18.71 18.7135 18.29V17.17C18.7135 17.17 18.7135 16.75 18.4272 16.61C18.4272 16.61 18.284 16.47 17.9976 16.47C17.4249 16.47 17.2817 16.75 17.2817 16.89V17.87C17.2817 18.15 16.9953 18.57 16.5658 18.57C16.1362 18.57 15.8499 18.15 15.8499 17.73V15.91C15.8499 15.49 15.5635 15.35 15.134 15.35C14.5612 15.35 14.4181 15.91 14.4181 16.05V17.87C14.4181 18.15 14.1317 18.57 13.7022 18.57C13.2726 18.57 12.9862 18.15 12.9862 17.73V16.05V11.71C12.9862 11.57 12.8431 11.15 12.4135 11.15C12.2458 11.15 12.1272 11.198 12.0289 11.2378C11.9594 11.266 11.9001 11.29 11.8408 11.29C11.5544 11.57 11.5544 12.13 11.5544 12.27V20.95V21.23L10.1226 22.91C10.1226 22.91 9.97942 23.05 9.83624 22.91C9.69306 22.77 9.69306 22.77 9.69306 22.63L10.1226 20.53V19.83C9.69306 19.83 9.26352 19.97 9.12033 20.11C8.69079 20.67 8.69079 21.65 8.69079 23.05V24.03C8.69079 25.9163 10.9055 27.809 13.4987 28.7076C10.1755 27.9313 7.25897 26.059 7.25897 24.03V23.05C7.25897 21.37 7.25897 20.11 8.11806 19.13C8.54761 18.71 9.26352 18.43 10.1226 18.29V12.27C10.1226 12.27 10.1226 11.15 10.8385 10.31C11.2681 10.03 11.8408 9.75 12.4135 9.75C13.8453 9.75 14.4181 10.87 14.4181 11.71V14.09C14.5612 13.95 14.8476 13.95 15.134 13.95C15.9931 13.95 16.4226 14.23 16.709 14.51C16.7806 14.65 16.8522 14.755 16.9237 14.86C16.9953 14.965 17.0669 15.07 17.1385 15.21C17.4249 15.07 17.7112 15.07 17.9976 15.07C18.7135 15.07 19.2862 15.35 19.5726 15.63C19.859 15.91 20.1453 16.47 20.1453 16.75ZM18.5471 28.9193C17.0431 29.4569 15.1904 29.2938 13.4987 28.7076C15.1861 29.1017 16.9785 29.2133 18.5471 28.9193Z" fill="#211E20"/>
<path d="M21.0044 16.75L21.0935 16.3857L21.0496 16.375H21.0044V16.75ZM20.1453 16.75H19.7703V17.125H20.1453V16.75ZM23.009 23.61H22.6338L22.6342 23.6217L23.009 23.61ZM20.5749 18.01L20.6911 17.6535L20.6344 17.635H20.5749V18.01ZM20.2885 18.01V17.635H20.1356L20.0263 17.7419L20.2885 18.01ZM18.4272 16.61L18.165 16.8781L18.2082 16.9204L18.2624 16.9469L18.4272 16.61ZM12.0289 11.2378L12.1697 11.5854L12.1697 11.5854L12.0289 11.2378ZM11.8408 11.29V10.915H11.6879L11.5786 11.0219L11.8408 11.29ZM11.5544 21.23L11.8398 21.4732L11.9294 21.3681V21.23H11.5544ZM10.1226 22.91L10.3848 23.1781L10.397 23.1662L10.408 23.1532L10.1226 22.91ZM9.83624 22.91L9.57407 23.1781L9.57407 23.1781L9.83624 22.91ZM9.69306 22.63L9.32567 22.5549L9.31806 22.592V22.63H9.69306ZM10.1226 20.53L10.49 20.6052L10.4976 20.568V20.53H10.1226ZM10.1226 19.83H10.4976V19.455H10.1226V19.83ZM9.12033 20.11L8.85816 19.8419L8.83905 19.8606L8.82279 19.8818L9.12033 20.11ZM8.11806 19.13L7.85589 18.8619L7.84558 18.872L7.83607 18.8828L8.11806 19.13ZM10.1226 18.29L10.1829 18.6601L10.4976 18.6088V18.29H10.1226ZM10.1226 12.27L9.74761 12.27V12.27H10.1226ZM10.8385 10.31L10.6337 9.99585L10.5883 10.0255L10.5531 10.0668L10.8385 10.31ZM14.4181 14.09H14.0431V14.9811L14.6802 14.3581L14.4181 14.09ZM16.709 14.51L17.0429 14.3393L17.015 14.2847L16.9711 14.2419L16.709 14.51ZM17.1385 15.21L16.8046 15.3807L16.9723 15.7087L17.3032 15.5469L17.1385 15.21ZM21.0044 16.375H20.1453V17.125H21.0044V16.375ZM23.384 20.11C23.384 19.5921 23.3094 18.8009 22.9954 18.0717C22.6775 17.3334 22.0992 16.6316 21.0935 16.3857L20.9154 17.1143C21.6278 17.2884 22.0518 17.7766 22.3066 18.3683C22.5653 18.9691 22.634 19.6479 22.634 20.11H23.384ZM23.384 23.61V20.11H22.634V23.61H23.384ZM18.6162 29.2878C19.9607 29.0358 21.1838 28.4907 22.0593 27.5532C22.9415 26.6086 23.4368 25.3015 23.3838 23.5983L22.6342 23.6217C22.6819 25.1569 22.2388 26.2621 21.5112 27.0414C20.7767 27.8278 19.7185 28.3181 18.478 28.5507L18.6162 29.2878ZM21.2022 23.75C21.2022 25.18 20.8942 26.2411 20.4029 27.0103C19.9136 27.7764 19.2266 28.2781 18.4208 28.5661L18.6733 29.2724C19.6191 28.9342 20.4472 28.3344 21.035 27.414C21.6209 26.4966 21.9522 25.2862 21.9522 23.75H21.2022ZM21.2022 20.11V23.75H21.9522V20.11H21.2022ZM20.4587 18.3665C20.7112 18.4489 20.9086 18.7173 21.0418 19.1241C21.1695 19.5145 21.2022 19.9282 21.2022 20.11H21.9522C21.9522 19.8718 21.9132 19.3755 21.7546 18.8909C21.6014 18.4227 21.2976 17.8511 20.6911 17.6535L20.4587 18.3665ZM20.2885 18.385H20.5749V17.635H20.2885V18.385ZM20.3772 18.43C20.3772 18.4598 20.3695 18.4773 20.3691 18.4782C20.3691 18.4782 20.3736 18.4686 20.3892 18.4482C20.4234 18.4036 20.4741 18.353 20.5507 18.2781L20.0263 17.7419C19.9598 17.807 19.8672 17.8964 19.7941 17.9918C19.7243 18.0827 19.6272 18.235 19.6272 18.43H20.3772ZM19.2862 19.365C19.5287 19.365 19.8009 19.328 20.02 19.1749C20.2658 19.0033 20.3772 18.7358 20.3772 18.43H19.6272C19.6272 18.4929 19.6164 18.5241 19.6106 18.5366C19.606 18.5466 19.6011 18.5527 19.5906 18.5601C19.5591 18.582 19.4733 18.615 19.2862 18.615V19.365ZM18.3385 18.29C18.3385 18.8692 18.7479 19.365 19.2862 19.365V18.615C19.2519 18.615 19.0885 18.5508 19.0885 18.29H18.3385ZM18.3385 17.17V18.29H19.0885V17.17H18.3385ZM18.2624 16.9469C18.2667 16.949 18.2942 16.967 18.3178 17.0477C18.3279 17.0823 18.3334 17.1164 18.3362 17.1423C18.3375 17.1548 18.3381 17.1643 18.3384 17.1695C18.3385 17.1721 18.3385 17.1735 18.3385 17.1737C18.3385 17.1738 18.3385 17.1735 18.3385 17.1729C18.3385 17.1726 18.3385 17.1722 18.3385 17.1717C18.3385 17.1715 18.3385 17.1712 18.3385 17.1709C18.3385 17.1708 18.3385 17.1706 18.3385 17.1705C18.3385 17.1704 18.3385 17.1703 18.3385 17.1702C18.3385 17.1701 18.3385 17.17 18.7135 17.17C19.0885 17.17 19.0885 17.1699 19.0885 17.1697C19.0885 17.1697 19.0885 17.1696 19.0885 17.1695C19.0885 17.1693 19.0885 17.1691 19.0885 17.1689C19.0885 17.1685 19.0885 17.1681 19.0885 17.1677C19.0885 17.1668 19.0885 17.1658 19.0885 17.1647C19.0885 17.1625 19.0884 17.1599 19.0884 17.1568C19.0882 17.1508 19.088 17.143 19.0875 17.1339C19.0867 17.1156 19.085 17.0911 19.0819 17.0621C19.0757 17.0048 19.0633 16.9252 19.0377 16.8373C18.9897 16.673 18.8739 16.411 18.5919 16.2731L18.2624 16.9469ZM17.9976 16.845C18.0775 16.845 18.1289 16.8641 18.1551 16.8769C18.1687 16.8836 18.1766 16.8891 18.1785 16.8905C18.1795 16.8912 18.1789 16.8908 18.1767 16.8889C18.1755 16.888 18.174 16.8866 18.1721 16.8849C18.1711 16.884 18.17 16.883 18.1688 16.8819C18.1683 16.8813 18.1676 16.8807 18.167 16.8801C18.1667 16.8798 18.1663 16.8795 18.166 16.8791C18.1658 16.879 18.1657 16.8788 18.1655 16.8786C18.1654 16.8786 18.1653 16.8784 18.1652 16.8784C18.1651 16.8783 18.165 16.8781 18.4272 16.61C18.6893 16.3419 18.6892 16.3417 18.6891 16.3416C18.689 16.3416 18.6889 16.3414 18.6888 16.3414C18.6886 16.3412 18.6884 16.341 18.6882 16.3408C18.6879 16.3405 18.6875 16.3401 18.6871 16.3397C18.6863 16.339 18.6855 16.3382 18.6846 16.3373C18.6829 16.3357 18.681 16.3339 18.6789 16.332C18.6747 16.3282 18.6698 16.3238 18.6642 16.319C18.6531 16.3095 18.639 16.2982 18.6221 16.2857C18.5882 16.2609 18.5424 16.2314 18.4845 16.2031C18.3675 16.1459 18.2041 16.095 17.9976 16.095V16.845ZM17.6567 16.89C17.6567 16.938 17.6376 16.9379 17.6618 16.9182C17.6838 16.9002 17.7704 16.845 17.9976 16.845V16.095C17.6521 16.095 17.3807 16.1798 17.188 16.3368C16.9974 16.4921 16.9067 16.702 16.9067 16.89H17.6567ZM17.6567 17.87V16.89H16.9067V17.87H17.6567ZM16.5658 18.945C16.9103 18.945 17.1849 18.7756 17.3643 18.5751C17.5369 18.3821 17.6567 18.1215 17.6567 17.87H16.9067C16.9067 17.8985 16.8833 17.9879 16.8054 18.0749C16.7342 18.1544 16.6508 18.195 16.5658 18.195V18.945ZM15.4749 17.73C15.4749 18.2725 15.8536 18.945 16.5658 18.945V18.195C16.4841 18.195 16.407 18.158 16.3402 18.0741C16.2702 17.986 16.2249 17.8592 16.2249 17.73H15.4749ZM15.4749 15.91V17.73H16.2249V15.91H15.4749ZM15.134 15.725C15.3211 15.725 15.4069 15.758 15.4383 15.7799C15.4488 15.7873 15.4537 15.7934 15.4584 15.8034C15.4642 15.8159 15.4749 15.8471 15.4749 15.91H16.2249C16.2249 15.6042 16.1135 15.3367 15.8677 15.1651C15.6486 15.012 15.3764 14.975 15.134 14.975V15.725ZM14.7931 16.05C14.7931 16.0635 14.7926 16.0409 14.8076 15.9926C14.8211 15.9491 14.8421 15.9012 14.8711 15.8588C14.9221 15.7839 14.9938 15.725 15.134 15.725V14.975C14.7014 14.975 14.4151 15.1961 14.2514 15.4363C14.102 15.6554 14.0431 15.9039 14.0431 16.05H14.7931ZM14.7931 17.87V16.05H14.0431V17.87H14.7931ZM13.7022 18.945C14.0467 18.945 14.3212 18.7756 14.5006 18.5751C14.6733 18.3821 14.7931 18.1215 14.7931 17.87H14.0431C14.0431 17.8985 14.0197 17.9879 13.9417 18.0749C13.8706 18.1544 13.7872 18.195 13.7022 18.195V18.945ZM12.6112 17.73C12.6112 18.2725 12.99 18.945 13.7022 18.945V18.195C13.6205 18.195 13.5433 18.158 13.4766 18.0741C13.4065 17.986 13.3612 17.8592 13.3612 17.73H12.6112ZM12.6112 16.05V17.73H13.3612V16.05H12.6112ZM12.6112 11.71V16.05H13.3612V11.71H12.6112ZM12.4135 11.525C12.4569 11.525 12.483 11.5349 12.5003 11.5446C12.5195 11.5554 12.5392 11.5728 12.5582 11.5987C12.5775 11.6252 12.5925 11.656 12.6022 11.6844C12.6134 11.7172 12.6112 11.7277 12.6112 11.71H13.3612C13.3612 11.5537 13.296 11.3373 13.1638 11.1563C13.0184 10.9573 12.771 10.775 12.4135 10.775V11.525ZM12.1697 11.5854C12.263 11.5476 12.3237 11.525 12.4135 11.525V10.775C12.1679 10.775 11.9913 10.8485 11.8881 10.8903L12.1697 11.5854ZM11.8408 11.665C11.9876 11.665 12.1192 11.6058 12.1697 11.5854L11.8881 10.8903C11.87 10.8976 11.8569 10.9029 11.8447 10.9075C11.8329 10.912 11.8255 10.9146 11.8207 10.9161C11.8105 10.9192 11.82 10.915 11.8408 10.915V11.665ZM11.9294 12.27C11.9294 12.2031 11.9298 12.0574 11.9589 11.9011C11.9899 11.7343 12.0427 11.617 12.103 11.5581L11.5786 11.0219C11.3525 11.243 11.2621 11.5457 11.2215 11.7639C11.179 11.9926 11.1794 12.1969 11.1794 12.27H11.9294ZM11.9294 20.95V12.27H11.1794V20.95H11.9294ZM11.9294 21.23V20.95H11.1794V21.23H11.9294ZM10.408 23.1532L11.8398 21.4732L11.269 20.9868L9.8372 22.6668L10.408 23.1532ZM9.57407 23.1781C9.65683 23.259 9.75709 23.3151 9.86942 23.3371C9.97894 23.3585 10.0761 23.3429 10.1493 23.319C10.2211 23.2956 10.2767 23.2623 10.3127 23.2371C10.3314 23.2241 10.3468 23.2118 10.3586 23.2018C10.3646 23.1968 10.3697 23.1922 10.3741 23.1882C10.3762 23.1863 10.3782 23.1844 10.38 23.1827C10.3809 23.1819 10.3817 23.1811 10.3825 23.1803C10.3829 23.1799 10.3833 23.1795 10.3837 23.1792C10.3839 23.179 10.3841 23.1788 10.3842 23.1786C10.3843 23.1786 10.3845 23.1784 10.3845 23.1784C10.3846 23.1783 10.3848 23.1781 10.1226 22.91C9.86044 22.6419 9.86057 22.6417 9.8607 22.6416C9.86074 22.6416 9.86087 22.6415 9.86096 22.6414C9.86113 22.6412 9.8613 22.641 9.86147 22.6409C9.86181 22.6405 9.86214 22.6402 9.86247 22.6399C9.86312 22.6393 9.86376 22.6387 9.86438 22.6381C9.86561 22.6369 9.86677 22.6358 9.86786 22.6348C9.87004 22.6328 9.87199 22.6311 9.87374 22.6297C9.87714 22.6268 9.88024 22.6244 9.88328 22.6222C9.88795 22.619 9.89879 22.6119 9.91691 22.606C9.93647 22.5996 9.97096 22.5927 10.0134 22.601C10.0586 22.6099 10.0872 22.631 10.0984 22.6419L9.57407 23.1781ZM9.31806 22.63C9.31806 22.6712 9.30954 22.8087 9.37708 22.9407C9.40874 23.0027 9.44853 23.0493 9.47755 23.0808C9.50595 23.1117 9.54116 23.1459 9.57407 23.1781L10.0984 22.6419C10.0801 22.624 10.0659 22.6101 10.0538 22.5981C10.0417 22.586 10.0342 22.5782 10.0294 22.5729C10.0245 22.5676 10.0249 22.5676 10.0277 22.5714C10.0309 22.5757 10.0376 22.5852 10.0448 22.5993C10.0524 22.614 10.0584 22.6296 10.0626 22.6452C10.0666 22.66 10.0679 22.6709 10.0684 22.675C10.0687 22.6784 10.0684 22.6776 10.0683 22.6688C10.0681 22.6598 10.0681 22.6486 10.0681 22.63H9.31806ZM9.75521 20.4549L9.32567 22.5549L10.0605 22.7051L10.49 20.6052L9.75521 20.4549ZM9.74761 19.83V20.53H10.4976V19.83H9.74761ZM9.3825 20.3781C9.37858 20.382 9.39319 20.3678 9.44164 20.3441C9.48629 20.3223 9.54644 20.2988 9.61964 20.2773C9.76682 20.2342 9.94606 20.205 10.1226 20.205V19.455C9.8696 19.455 9.6193 19.4958 9.40853 19.5577C9.21327 19.6149 8.99713 19.706 8.85816 19.8419L9.3825 20.3781ZM9.06579 23.05C9.06579 22.3429 9.06628 21.771 9.11725 21.3058C9.16847 20.8384 9.26595 20.5363 9.41788 20.3382L8.82279 19.8818C8.54517 20.2437 8.42788 20.7116 8.37171 21.2242C8.3153 21.739 8.31579 22.3571 8.31579 23.05H9.06579ZM9.06579 24.03V23.05H8.31579V24.03H9.06579ZM13.6215 28.3532C12.3667 27.9185 11.2124 27.2455 10.3785 26.4653C9.53776 25.6788 9.06579 24.8262 9.06579 24.03H8.31579C8.31579 25.1201 8.95118 26.157 9.8661 27.013C10.7879 27.8754 12.0375 28.5981 13.3759 29.0619L13.6215 28.3532ZM6.88397 24.03C6.88397 25.2282 7.73691 26.3012 8.91443 27.1435C10.1073 27.9969 11.7152 28.6761 13.4134 29.0727L13.584 28.3424C11.9589 27.9628 10.4469 27.3177 9.3508 26.5336C8.23927 25.7384 7.63397 24.8608 7.63397 24.03H6.88397ZM6.88397 23.05V24.03H7.63397V23.05H6.88397ZM7.83607 18.8828C6.86644 19.9889 6.88397 21.4099 6.88397 23.05H7.63397C7.63397 21.3301 7.6515 20.2311 8.40005 19.3772L7.83607 18.8828ZM10.0623 17.9199C9.17188 18.065 8.36604 18.3631 7.85589 18.8619L8.38023 19.3981C8.72918 19.0569 9.35515 18.795 10.1829 18.6601L10.0623 17.9199ZM9.74761 12.27V18.29H10.4976V12.27H9.74761ZM10.5531 10.0668C10.1431 10.5478 9.94442 11.1003 9.84683 11.5201C9.79763 11.7318 9.77293 11.9149 9.76046 12.0465C9.75422 12.1125 9.75101 12.1659 9.74936 12.204C9.74853 12.2231 9.7481 12.2383 9.74786 12.2494C9.74775 12.255 9.74768 12.2595 9.74765 12.2629C9.74763 12.2647 9.74762 12.2661 9.74762 12.2673C9.74761 12.2679 9.74761 12.2684 9.74761 12.2689C9.74761 12.2691 9.74761 12.2693 9.74761 12.2695C9.74761 12.2696 9.74761 12.2697 9.74761 12.2698C9.74761 12.2699 9.74761 12.27 10.1226 12.27C10.4976 12.27 10.4976 12.2701 10.4976 12.2702C10.4976 12.2703 10.4976 12.2704 10.4976 12.2704C10.4976 12.2705 10.4976 12.2706 10.4976 12.2707C10.4976 12.2709 10.4976 12.271 10.4976 12.2711C10.4976 12.2712 10.4976 12.271 10.4976 12.2706C10.4976 12.2697 10.4976 12.2679 10.4977 12.265C10.4978 12.2593 10.4981 12.2497 10.4987 12.2365C10.4998 12.21 10.5022 12.1694 10.5071 12.1172C10.517 12.0126 10.5371 11.8632 10.5774 11.6899C10.6588 11.3397 10.818 10.9122 11.1239 10.5532L10.5531 10.0668ZM12.4135 9.375C11.7305 9.375 11.0824 9.70341 10.6337 9.99585L11.0433 10.6242C11.4538 10.3566 11.9511 10.125 12.4135 10.125V9.375ZM14.7931 11.71C14.7931 11.2128 14.6255 10.6347 14.2403 10.1743C13.8458 9.70282 13.2386 9.375 12.4135 9.375V10.125C13.0202 10.125 13.4154 10.3572 13.6651 10.6557C13.9242 10.9653 14.0431 11.3672 14.0431 11.71H14.7931ZM14.7931 14.09V11.71H14.0431V14.09H14.7931ZM15.134 13.575C14.9976 13.575 14.8266 13.5743 14.6704 13.5961C14.5198 13.6171 14.3142 13.6671 14.1559 13.8219L14.6802 14.3581C14.6651 14.3729 14.6743 14.3529 14.7742 14.3389C14.8686 14.3257 14.984 14.325 15.134 14.325V13.575ZM16.9711 14.2419C16.6185 13.8971 16.0963 13.575 15.134 13.575V14.325C15.8899 14.325 16.2267 14.5629 16.4468 14.7781L16.9711 14.2419ZM17.2336 14.6487C17.1619 14.5437 17.1026 14.456 17.0429 14.3393L16.3751 14.6807C16.4586 14.844 16.5424 14.9663 16.6139 15.0713L17.2336 14.6487ZM17.4724 15.0393C17.3889 14.876 17.3051 14.7537 17.2336 14.6487L16.6139 15.0713C16.6856 15.1763 16.7449 15.264 16.8046 15.3807L17.4724 15.0393ZM17.9976 14.695C17.7207 14.695 17.349 14.6897 16.9738 14.8731L17.3032 15.5469C17.5008 15.4503 17.7018 15.445 17.9976 15.445V14.695ZM19.8348 15.3619C19.4729 15.0081 18.8037 14.695 17.9976 14.695V15.445C18.6234 15.445 19.0996 15.6919 19.3104 15.8981L19.8348 15.3619ZM20.5203 16.75C20.5203 16.517 20.4134 16.2405 20.3002 16.0193C20.1808 15.7857 20.0156 15.5386 19.8348 15.3619L19.3104 15.8981C19.416 16.0014 19.5372 16.1743 19.6325 16.3607C19.7341 16.5595 19.7703 16.703 19.7703 16.75H20.5203ZM18.4208 28.5661C17.0243 29.0654 15.2645 28.9226 13.6215 28.3532L13.3759 29.0619C15.1162 29.665 17.0619 29.8485 18.6733 29.2724L18.4208 28.5661ZM13.4134 29.0727C15.1383 29.4757 16.9845 29.5937 18.6162 29.2878L18.478 28.5507C16.9724 28.8329 15.234 28.7278 13.584 28.3424L13.4134 29.0727Z" fill="#211E20"/>
</svg>
