<svg width="15" height="17" viewBox="0 0 15 17" fill="none" xmlns="http://www.w3.org/2000/svg">
<mask id="mask0_1_908" style="mask-type:luminance" maskUnits="userSpaceOnUse" x="0" y="0" width="14" height="15">
<path fill-rule="evenodd" clip-rule="evenodd" d="M0.136169 0.850098H13.3281V14.3957H0.136169V0.850098Z" fill="white"/>
</mask>
<g mask="url(#mask0_1_908)">
<path fill-rule="evenodd" clip-rule="evenodd" d="M9.68643 0.850098C9.68566 1.05516 9.71369 1.27538 9.74894 1.47643H7.707V11.1467C7.707 11.5925 7.65892 11.9894 7.5628 12.3377C6.73128 14.081 4.37692 13.8532 3.72635 12.6569C4.69495 13.2337 6.28758 13.0806 6.94117 11.7113C7.0365 11.3639 7.08456 10.9661 7.08456 10.5204V0.850098H9.68643ZM11.0755 3.77453C11.6018 4.17457 12.3276 4.46956 13.3282 4.52593V5.0815C12.2211 4.887 11.5193 4.36363 11.0755 3.77453ZM1.73267 14.3958C-1.59898 11.6458 0.555718 5.52329 5.67787 6.29362V6.86064C1.35208 6.66927 -0.552072 11.5772 1.73267 14.3958Z" fill="#00F7EF"/>
</g>
<mask id="mask1_1_908" style="mask-type:luminance" maskUnits="userSpaceOnUse" x="0" y="1" width="15" height="16">
<path fill-rule="evenodd" clip-rule="evenodd" d="M0.883911 1.578H14.0604V16.5439H0.883911V1.578Z" fill="white"/>
</mask>
<g mask="url(#mask1_1_908)">
<path fill-rule="evenodd" clip-rule="evenodd" d="M10.4222 1.578V1.5906C10.423 1.81842 10.4918 5.11205 14.0588 5.3175C14.0588 8.38159 14.0604 5.3175 14.0604 7.86235C13.7924 7.87774 11.7126 7.73211 10.4182 6.61346L10.4142 11.5676C10.4462 13.811 9.15748 16.0109 6.74479 16.4543C6.0688 16.5783 5.46016 16.5923 4.43842 16.376C-1.4476 14.6699 0.508289 6.21047 6.4184 7.11577C6.4184 9.8468 6.42002 7.115 6.42002 9.8468C3.97851 9.49873 3.16176 11.4669 3.81053 12.8761C4.40099 14.159 6.83198 14.4373 7.67993 12.6273C7.77593 12.273 7.82395 11.8692 7.82395 11.4157V1.578H10.4222Z" fill="black"/>
</g>
<path fill-rule="evenodd" clip-rule="evenodd" d="M10.5736 1.5614V1.57401C10.5736 1.70808 10.5974 2.89867 11.3099 3.9019C10.4512 3.20898 10.145 2.20793 10.0358 1.5614H10.5736ZM13.4734 5.23293C13.6603 5.26765 13.8596 5.29248 14.0712 5.30501C14.0712 8.37249 14.0727 5.30501 14.0727 7.85267C13.815 7.86808 11.8146 7.7223 10.5697 6.60241L10.5659 11.5621C10.5967 13.8079 9.3572 16.0102 7.03674 16.4541C6.38659 16.5783 5.80121 16.5923 4.81853 16.3757C3.71223 16.042 2.89524 15.4492 2.33667 14.7189C2.83436 15.155 3.45909 15.5081 4.22158 15.7386C5.20319 15.9544 5.7888 15.9404 6.4389 15.8162C8.75939 15.3723 9.99885 13.17 9.96885 10.925L9.97195 5.96452C11.2168 7.08441 13.2172 7.231 13.4757 7.21468C13.4757 4.84871 13.4734 7.32498 13.4734 5.23293ZM6.1258 7.04486C6.31959 7.05341 6.51895 7.07271 6.72283 7.10529C6.72283 9.83934 6.72439 7.10452 6.72439 9.83934C4.37621 9.49089 3.59067 11.4612 4.21464 12.872C4.22611 12.8976 4.2385 12.9233 4.25149 12.948C3.97221 12.7719 3.74763 12.5298 3.61694 12.2341C2.99373 10.8233 3.77841 8.85302 6.12656 9.20143C6.12656 6.69564 6.1258 8.7808 6.1258 7.04486Z" fill="#FF004F"/>
</svg>
