<svg width="12" height="10" viewBox="0 0 12 10" fill="none" xmlns="http://www.w3.org/2000/svg">
<path d="M4.18237 9.54739C8.27186 9.54739 10.5094 6.25274 10.5094 3.39337C10.5094 3.29962 10.5094 3.20587 10.5025 3.11212C10.9362 2.80408 11.3149 2.42238 11.6178 1.99381C11.2185 2.16122 10.7848 2.28176 10.3373 2.32863C10.7985 2.06077 11.1496 1.6389 11.3149 1.13667C10.888 1.38443 10.4061 1.56524 9.90352 1.65899C9.49733 1.23711 8.91902 0.975952 8.27874 0.975952C7.04639 0.975952 6.055 1.94694 6.055 3.1389C6.055 3.30631 6.07565 3.47372 6.11007 3.63444C4.26499 3.54069 2.61955 2.68354 1.52489 1.37104C1.33212 1.69247 1.22197 2.06078 1.22197 2.46256C1.22197 3.21256 1.61439 3.87551 2.21336 4.2639C1.84847 4.25051 1.50424 4.15006 1.2082 3.98935V4.01613C1.2082 5.06748 1.97239 5.93801 2.99132 6.13891C2.80544 6.18578 2.60578 6.21257 2.40613 6.21257C2.26155 6.21257 2.12386 6.19917 1.98616 6.17908C2.26843 7.03623 3.08771 7.659 4.06533 7.67909C3.30113 8.26168 2.34417 8.60319 1.30458 8.60319C1.1187 8.60319 0.946579 8.5965 0.767578 8.57641C1.75208 9.19248 2.92248 9.54739 4.18237 9.54739Z" fill="white"/>
</svg>
