<svg width="13" height="9" viewBox="0 0 13 9" fill="none" xmlns="http://www.w3.org/2000/svg">
<path fill-rule="evenodd" clip-rule="evenodd" d="M11.0487 8.34561C11.0197 8.34822 10.993 8.3506 10.9693 8.35325C10.9693 8.35325 9.24809 8.48048 6.65258 8.48048C3.44433 8.45369 2.45982 8.35994 2.45982 8.35994C2.41485 8.35229 2.3607 8.34624 2.29952 8.33941C1.9861 8.30441 1.48836 8.24882 1.09666 7.85101C1.09666 7.85101 0.718001 7.48271 0.607846 6.65905C0.5032 5.88226 0.486676 5.10547 0.484253 4.82583V3.69762C0.486676 3.41797 0.5032 2.64119 0.607846 1.8644C0.718001 1.03404 1.09666 0.672434 1.09666 0.672434C1.51912 0.237349 1.99204 0.194883 2.2574 0.171055C2.2861 0.168478 2.31238 0.166119 2.3359 0.163505C2.3359 0.163505 4.05706 0.0429688 6.65258 0.0429688C9.24809 0.0429688 10.9693 0.163505 10.9693 0.163505C10.9928 0.166119 11.0191 0.168478 11.0478 0.171055C11.3131 0.194883 11.786 0.237349 12.2085 0.672434C12.2085 0.672434 12.5872 1.03404 12.6973 1.8644C12.802 2.64119 12.8185 3.41797 12.8209 3.69762V4.82583C12.8185 5.10547 12.802 5.88226 12.6973 6.65905C12.5872 7.48271 12.2085 7.85101 12.2085 7.85101C11.7866 8.27952 11.3143 8.32183 11.0487 8.34561ZM5.37891 2.44693V5.81523L8.71109 4.14112L5.37891 2.44693Z" fill="white"/>
</svg>
